<svg width="512" height="512" viewBox="0 0 512 512" fill="none" xmlns="http://www.w3.org/2000/svg" role="img" aria-label="Binderdex">
  <defs>
    <linearGradient id="bdx_bg" x1="60" y1="40" x2="452" y2="472" gradientUnits="userSpaceOnUse">
      <stop stop-color="#FF4D6D"></stop>
      <stop offset="0.5" stop-color="#F0263C"></stop>
      <stop offset="1" stop-color="#B11026"></stop>
    </linearGradient>
    <radialGradient id="bdx_glow" cx="0.5" cy="0.46" r="0.5">
      <stop stop-color="#FFE48A" stop-opacity="0.95"></stop>
      <stop offset="0.4" stop-color="#FFB14E" stop-opacity="0.55"></stop>
      <stop offset="1" stop-color="#FFB14E" stop-opacity="0"></stop>
    </radialGradient>
    <radialGradient id="bdx_lens" cx="0.4" cy="0.34" r="0.85">
      <stop stop-color="#9BF0FF"></stop>
      <stop offset="0.42" stop-color="#22C3F5"></stop>
      <stop offset="0.8" stop-color="#1366D6"></stop>
      <stop offset="1" stop-color="#0A2E7A"></stop>
    </radialGradient>
    <radialGradient id="bdx_core" cx="0.42" cy="0.36" r="0.7">
      <stop stop-color="#FFFFFF"></stop>
      <stop offset="0.5" stop-color="#C9F6FF"></stop>
      <stop offset="1" stop-color="#3FD0FF"></stop>
    </radialGradient>
    <linearGradient id="bdx_ring" x1="150" y1="150" x2="362" y2="372" gradientUnits="userSpaceOnUse">
      <stop stop-color="#FFFFFF"></stop>
      <stop offset="1" stop-color="#FFC9D2"></stop>
    </linearGradient>
    <linearGradient id="bdx_topgloss" x1="256" y1="30" x2="256" y2="280" gradientUnits="userSpaceOnUse">
      <stop stop-color="#FFFFFF" stop-opacity="0.45"></stop>
      <stop offset="1" stop-color="#FFFFFF" stop-opacity="0"></stop>
    </linearGradient>
    <clipPath id="bdx_clip"><rect x="40" y="40" width="432" height="432" rx="108"></rect></clipPath>
    <filter id="bdx_softsh" x="-40%" y="-40%" width="180%" height="180%">
      <feDropShadow dx="0" dy="14" stdDeviation="16" flood-color="#5E0A18" flood-opacity="0.45"></feDropShadow>
    </filter>
    <filter id="bdx_lensblur" x="-50%" y="-50%" width="200%" height="200%">
      <feGaussianBlur stdDeviation="14"></feGaussianBlur>
    </filter>
  </defs>

  <rect x="40" y="40" width="432" height="432" rx="108" fill="url(#bdx_bg)"></rect>

  <g clip-path="url(#bdx_clip)">
    <g opacity="0.5">
      <g fill="#FFFFFF" fill-opacity="0.16">
        <path d="M256 256L236 -40h40z"></path>
        <path d="M256 256L552 236v40z"></path>
        <path d="M256 256L276 552h-40z"></path>
        <path d="M256 256L-40 276v-40z"></path>
        <path d="M256 256L470 30l28 28z"></path>
        <path d="M256 256L482 470l-28 28z"></path>
        <path d="M256 256L42 482l-28-28z"></path>
        <path d="M256 256L30 42l28-28z"></path>
      </g>
    </g>
    <circle cx="256" cy="248" r="220" fill="url(#bdx_glow)"></circle>
    <ellipse cx="256" cy="74" rx="270" ry="150" fill="url(#bdx_topgloss)"></ellipse>
    <g transform="rotate(18 360 380)" opacity="0.95">
      <rect x="318" y="320" width="120" height="166" rx="16" fill="#7B61FF"></rect>
      <rect x="318" y="320" width="120" height="166" rx="16" fill="url(#bdx_topgloss)"></rect>
      <rect x="330" y="334" width="96" height="60" rx="8" fill="#FFFFFF" fill-opacity="0.45"></rect>
    </g>
  </g>

  <g filter="url(#bdx_softsh)">
    <circle cx="248" cy="244" r="132" fill="url(#bdx_ring)"></circle>
    <circle cx="248" cy="244" r="132" fill="none" stroke="#C42721" stroke-opacity="0.25" stroke-width="3"></circle>
    <circle cx="248" cy="244" r="112" fill="#0A2E7A"></circle>
    <circle cx="248" cy="244" r="108" fill="url(#bdx_lens)"></circle>
    <circle cx="248" cy="244" r="92" fill="#3FD0FF" filter="url(#bdx_lensblur)" opacity="0.6"></circle>
    <circle cx="248" cy="244" r="50" fill="url(#bdx_core)"></circle>
    <path d="M248 178v-26M248 336v26M182 244h-26M340 244h26" stroke="#FFFFFF" stroke-opacity="0.7" stroke-width="8" stroke-linecap="round"></path>
    <ellipse cx="214" cy="206" rx="40" ry="26" fill="#FFFFFF" fill-opacity="0.55"></ellipse>
  </g>

  <g filter="url(#bdx_softsh)">
    <path d="M388 132l11 26 28 3-21 19 6 28-24-15-24 15 6-28-21-19 28-3z" fill="#FFD23C"></path>
    <path d="M388 132l11 26 28 3-21 19 6 28-24-15-24 15 6-28-21-19 28-3z" fill="none" stroke="#E0A413" stroke-width="3"></path>
  </g>

  <rect x="44" y="44" width="424" height="424" rx="104" fill="none" stroke="#FFFFFF" stroke-opacity="0.22" stroke-width="3"></rect>
</svg>
