<svg width="512" height="512" viewBox="0 0 512 512" fill="none" xmlns="http://www.w3.org/2000/svg" role="img" aria-label="Binderdex">
  <defs>
    <linearGradient id="bdx_bg" x1="64" y1="40" x2="448" y2="472" gradientUnits="userSpaceOnUse">
      <stop stop-color="#2A5BB0"></stop>
      <stop offset="0.55" stop-color="#1C4796"></stop>
      <stop offset="1" stop-color="#143468"></stop>
    </linearGradient>
    <linearGradient id="bdx_gloss" x1="256" y1="24" x2="256" y2="300" gradientUnits="userSpaceOnUse">
      <stop stop-color="#FFFFFF" stop-opacity="0.30"></stop>
      <stop offset="1" stop-color="#FFFFFF" stop-opacity="0"></stop>
    </linearGradient>
    <radialGradient id="bdx_body" cx="0.4" cy="0.3" r="0.85">
      <stop stop-color="#FFB066"></stop>
      <stop offset="0.55" stop-color="#FF8A3D"></stop>
      <stop offset="1" stop-color="#E8631C"></stop>
    </radialGradient>
    <linearGradient id="bdx_crest" x1="150" y1="250" x2="210" y2="320" gradientUnits="userSpaceOnUse">
      <stop stop-color="#FF5A4D"></stop>
      <stop offset="1" stop-color="#E03522"></stop>
    </linearGradient>
    <linearGradient id="bdx_leather" x1="240" y1="160" x2="420" y2="420" gradientUnits="userSpaceOnUse">
      <stop stop-color="#A9682F"></stop>
      <stop offset="0.5" stop-color="#85501F"></stop>
      <stop offset="1" stop-color="#5E3713"></stop>
    </linearGradient>
    <radialGradient id="bdx_medal" cx="0.4" cy="0.32" r="0.9">
      <stop stop-color="#FFE08A"></stop>
      <stop offset="0.55" stop-color="#FCC419"></stop>
      <stop offset="1" stop-color="#D69310"></stop>
    </radialGradient>
    <clipPath id="bdx_clip"><rect x="40" y="40" width="432" height="432" rx="104"></rect></clipPath>
  </defs>

  <rect x="40" y="40" width="432" height="432" rx="104" fill="url(#bdx_bg)"></rect>
  <g clip-path="url(#bdx_clip)">
    <ellipse cx="256" cy="70" rx="260" ry="150" fill="url(#bdx_gloss)"></ellipse>
  </g>
  <rect x="40" y="40" width="432" height="432" rx="104" fill="none" stroke="#0E2750" stroke-opacity="0.45" stroke-width="4"></rect>

  <g transform="rotate(-6 330 300)">
    <rect x="312" y="166" width="138" height="206" rx="14" transform="rotate(9 381 269)" fill="#8E44C9"></rect>
    <rect x="312" y="168" width="138" height="204" rx="14" transform="rotate(5 381 270)" fill="#2FB344"></rect>
    <rect x="312" y="170" width="138" height="202" rx="14" transform="rotate(1 381 271)" fill="#FFD24C"></rect>
    <rect x="312" y="172" width="138" height="200" rx="14" transform="rotate(-3 381 272)" fill="#3B9BE8"></rect>
    <rect x="236" y="174" width="170" height="220" rx="22" fill="url(#bdx_leather)"></rect>
    <rect x="236" y="174" width="170" height="220" rx="22" fill="none" stroke="#4A2B0E" stroke-opacity="0.5" stroke-width="4"></rect>
    <rect x="248" y="186" width="146" height="196" rx="12" fill="none" stroke="#C98B4E" stroke-opacity="0.45" stroke-width="3"></rect>
  </g>

  <g>
    <ellipse cx="150" cy="424" rx="26" ry="16" fill="#E8631C"></ellipse>
    <ellipse cx="214" cy="428" rx="26" ry="16" fill="#E8631C"></ellipse>
    <path d="M150 250c-6-30 10-52 26-58-6 16 2 26 14 30-2-18 8-30 22-34-8 22 6 36 22 40-30 22-92 26-106 22z" fill="url(#bdx_crest)"></path>
    <circle cx="184" cy="332" r="92" fill="url(#bdx_body)"></circle>
    <ellipse cx="184" cy="356" rx="54" ry="58" fill="#FFE6C7"></ellipse>
    <path d="M118 288c-20-10-30-30-28-50 20 4 38 18 44 40z" fill="url(#bdx_body)"></path>
    <path d="M250 288c20-10 30-30 28-50-20 4-38 18-44 40z" fill="url(#bdx_body)"></path>
    <circle cx="132" cy="346" r="15" fill="#FF6F61" fill-opacity="0.6"></circle>
    <circle cx="236" cy="346" r="15" fill="#FF6F61" fill-opacity="0.6"></circle>
    <ellipse cx="154" cy="316" rx="20" ry="24" fill="#FFFFFF"></ellipse>
    <ellipse cx="214" cy="316" rx="20" ry="24" fill="#FFFFFF"></ellipse>
    <circle cx="157" cy="320" r="11" fill="#2A2533"></circle>
    <circle cx="211" cy="320" r="11" fill="#2A2533"></circle>
    <circle cx="161" cy="315" r="4" fill="#FFFFFF"></circle>
    <circle cx="215" cy="315" r="4" fill="#FFFFFF"></circle>
    <path d="M168 350q16 16 32 0" stroke="#A8430F" stroke-width="6" stroke-linecap="round" fill="none"></path>
  </g>

  <g>
    <circle cx="378" cy="150" r="58" fill="#C8881F"></circle>
    <circle cx="378" cy="150" r="47" fill="url(#bdx_medal)"></circle>
    <circle cx="378" cy="150" r="47" fill="none" stroke="#A9740C" stroke-width="3"></circle>
    <ellipse cx="363" cy="133" rx="20" ry="13" fill="#FFFFFF" fill-opacity="0.35"></ellipse>
    <path d="M357 151l12 12 23-26" stroke="#FFFFFF" stroke-width="10" stroke-linecap="round" stroke-linejoin="round"></path>
  </g>
</svg>
